<?xml version="1.0" encoding="utf-8"?>
<!-- Generator: Adobe Illustrator 15.1.0, SVG Export Plug-In . SVG Version: 6.00 Build 0)  -->
<!DOCTYPE svg PUBLIC "-//W3C//DTD SVG 1.1//EN" "http://www.w3.org/Graphics/SVG/1.1/DTD/svg11.dtd">
<svg version="1.1" xmlns="http://www.w3.org/2000/svg" xmlns:xlink="http://www.w3.org/1999/xlink" x="0px" y="0px" width="600px"
	 height="600px" viewBox="0 0 600 600" enable-background="new 0 0 600 600" xml:space="preserve">
<g id="Layer_2" display="none">
	<rect display="inline" width="600" height="600"/>
</g>
<g id="Layer_3">
	<path fill="#F2F2F2" d="M300,595c-78.797,0-152.878-30.686-208.597-86.403C35.686,452.879,5,378.798,5,300
		c0-78.797,30.686-152.878,86.403-208.597C147.122,35.686,221.203,5,300,5c78.798,0,152.879,30.686,208.597,86.403
		C564.314,147.122,595,221.203,595,300c0,78.798-30.686,152.879-86.403,208.597S378.798,595,300,595z"/>
</g>
<g id="Layer_4">
	<g>
		<defs>
			<path id="SVGID_1_" d="M300,595c-78.797,0-152.878-30.686-208.597-86.403C35.686,452.879,5,378.798,5,300
				c0-78.797,30.686-152.878,86.403-208.597C147.122,35.686,221.203,5,300,5c78.798,0,152.879,30.686,208.597,86.403
				C564.314,147.122,595,221.203,595,300c0,78.798-30.686,152.879-86.403,208.597S378.798,595,300,595z"/>
		</defs>
		<clipPath id="SVGID_2_">
			<use xlink:href="#SVGID_1_"  overflow="visible"/>
		</clipPath>
		<path clip-path="url(#SVGID_2_)" fill="#5E5E5E" d="M347.818,377.591c21.372,13.399,36.353,36.073,39.091,62.393
			c8.709,4.072,18.386,6.416,28.639,6.416c37.448,0,67.787-30.35,67.787-67.781c0-37.441-30.339-67.786-67.787-67.786
			C378.461,310.837,348.379,340.642,347.818,377.591z M303.406,516.382c37.438,0,67.788-30.35,67.788-67.786
			s-30.35-67.781-67.788-67.781c-37.432,0-67.797,30.351-67.797,67.786C235.609,486.039,265.975,516.382,303.406,516.382z
			 M332.158,521.001h-57.516c-47.858,0-86.792,38.94-86.792,86.799v70.344l0.179,1.103l4.844,1.517
			c45.673,14.267,85.354,19.028,118.014,19.028c63.788,0,100.764-18.189,103.045-19.351l4.529-2.292h0.484V607.8
			C418.95,559.941,380.015,521.001,332.158,521.001z M444.308,451.024h-57.071c-0.62,22.836-10.364,43.399-25.777,58.188
			c42.542,12.651,73.657,52.1,73.657,98.694v21.676c56.353-2.067,88.831-18.037,90.973-19.112l4.527-2.3h0.484v-70.36
			C531.101,489.957,492.167,451.024,444.308,451.024z M184.465,446.404c13.26,0,25.6-3.871,36.05-10.463
			c3.322-21.672,14.939-40.606,31.535-53.504c0.069-1.271,0.19-2.529,0.19-3.808c0-37.442-30.354-67.786-67.775-67.786
			c-37.447,0-67.788,30.344-67.788,67.786C116.677,416.058,147.018,446.404,184.465,446.404z M245.34,509.211
			c-15.344-14.713-25.055-35.166-25.765-57.864c-2.118-0.155-4.21-0.322-6.369-0.322h-57.515c-47.856,0-86.792,38.933-86.792,86.785
			v70.355l0.178,1.087l4.848,1.525c36.639,11.442,69.338,16.714,97.738,18.371v-21.242
			C171.677,561.312,202.79,521.869,245.34,509.211z"/>
		<g clip-path="url(#SVGID_2_)">
			<path fill="#CC2222" d="M338.842,262.874c2.578,2.58,2.916,6.818,0.713,9.471l-34.669,41.704
				c-2.599,3.127-6.865,3.145-9.478,0.038l-35.002-41.631c-2.235-2.66-1.908-6.922,0.689-9.52l34.876-34.875
				c2.231-2.233,5.828-2.228,8.066,0.011L338.842,262.874z"/>
			<g>
				<circle fill="#CC2222" cx="300" cy="181.234" r="99.157"/>
				<g>
					<g>
						<path fill="#FFFFFF" d="M310.924,216.594H289.75c-0.694,0-1.257,0.563-1.257,1.257v21.175c0,0.693,0.563,1.258,1.257,1.258
							h21.177c0.693,0,1.257-0.565,1.257-1.258v-21.175C312.183,217.156,311.62,216.594,310.924,216.594z"/>
					</g>
					<g>
						<path fill="#FFFFFF" d="M329.695,132.031c-7.389-6.535-17.431-9.849-29.848-9.849c-11.816,0-21.515,3.275-28.827,9.736
							c-7.334,6.479-11.344,14.478-11.915,23.774c-0.041,0.663,0.441,1.244,1.101,1.326l19.442,2.411
							c0.052,0.005,0.104,0.01,0.155,0.01c0.586,0,1.101-0.408,1.229-0.993c1.29-5.974,3.66-10.456,7.045-13.322
							c3.366-2.853,7.631-4.299,12.675-4.299c5.231,0,9.424,1.375,12.462,4.089c3.039,2.714,4.517,5.871,4.517,9.65
							c0,2.707-0.828,5.123-2.533,7.381c-0.776,1-3.3,3.5-10.866,9.653c-6.288,5.111-10.556,9.811-12.686,13.966
							c-2.141,4.179-3.229,9.545-3.229,15.948c0,0.61,0.025,2.269,0.076,5.071c0.012,0.686,0.572,1.236,1.257,1.236h19.218
							c0.338,0,0.661-0.136,0.896-0.377c0.236-0.24,0.366-0.565,0.362-0.901c-0.098-5.605,0.355-9.497,1.346-11.57
							c0.996-2.085,3.686-4.959,7.995-8.543c8.827-7.337,14.444-13.004,17.178-17.325c2.756-4.355,4.151-9.044,4.151-13.936
							C340.896,146.39,337.126,138.607,329.695,132.031z"/>
					</g>
				</g>
			</g>
		</g>
	</g>
</g>
<g id="Layer_1" display="none">
	<g display="inline">
		<path fill="#FFFFFF" d="M300,10c39.154,0,77.132,7.666,112.878,22.786c34.532,14.605,65.547,35.517,92.183,62.153
			c26.637,26.636,47.548,57.651,62.154,92.183C582.334,222.868,590,260.846,590,300s-7.666,77.132-22.785,112.878
			c-14.606,34.532-35.518,65.547-62.154,92.183c-26.636,26.637-57.65,47.548-92.183,62.154C377.132,582.334,339.154,590,300,590
			s-77.132-7.666-112.878-22.785c-34.532-14.606-65.547-35.518-92.183-62.154c-26.636-26.636-47.548-57.65-62.153-92.183
			C17.666,377.132,10,339.154,10,300s7.666-77.132,22.786-112.878c14.605-34.532,35.517-65.547,62.153-92.183
			s57.651-47.548,92.183-62.153C222.868,17.666,260.846,10,300,10 M300,0C134.314,0,0,134.314,0,300s134.314,300,300,300
			s300-134.314,300-300S465.686,0,300,0L300,0z"/>
	</g>
	<text transform="matrix(1 0 0 1 143.5313 -30)" display="inline" font-family="'OpenSans-Bold'" font-size="24">Anybody can ask question</text>
</g>
</svg>
