<?xml version="1.0" encoding="utf-8"?>
<!-- Generator: Adobe Illustrator 19.0.0, SVG Export Plug-In . SVG Version: 6.00 Build 0)  -->
<svg version="1.1" id="Layer_1" xmlns:sketch="http://www.bohemiancoding.com/sketch/ns"
	 xmlns="http://www.w3.org/2000/svg" xmlns:xlink="http://www.w3.org/1999/xlink" x="0px" y="0px" width="1280px" height="590px"
	 viewBox="440 -95 1280 590" style="enable-background:new 440 -95 1280 590;" xml:space="preserve">
<style type="text/css">
	.st0{filter:url(#Adobe_OpacityMaskFilter);}
	.st1{fill:#FFFFFF;}
	.st2{mask:url(#mask-2);}
	.st3{fill:#EAE9EB;}
	.st4{fill:#BFBDC4;}
	.st5{fill:#292038;}
	.st6{fill:#79C9A4;}
	.st7{fill:#65B18D;}
	.st8{fill:#CD141A;}
	.st9{fill:#ECB386;}
	.st10{fill:#040000;}
	.st11{fill:none;}
	.st12{fill:#AED6AB;}
	.st13{fill:#B5E9C4;}
	.st14{fill:#BDA800;}
	.st15{fill:#A46C2E;}
	.st16{fill:#460900;}
	.st17{fill:#FF6D56;}
	.st18{fill:#FFA37A;}
	.st19{fill:#EFDBA5;}
	.st20{fill:#9CBD9C;}
	.st21{fill:#639D90;}
	.st22{fill:#FFF1A4;}
	.st23{fill:#F1B789;}
	.st24{fill:#E47D6D;}
	.st25{fill:#D54251;}
	.st26{fill:#C70034;}
	.st27{fill:#ACC9A4;}
	.st28{fill:#CAD079;}
	.st29{fill:#D3B142;}
	.st30{fill:#A69F6B;}
	.st31{fill:#847692;}
	.st32{fill:#52516D;}
	.st33{fill:#8F7C85;}
	.st34{fill:#C6B1A2;}
	.st35{fill:#ECDAB3;}
	.st36{fill:#D6CAAD;}
	.st37{fill:#3B2272;}
	.st38{fill:#37757A;}
	.st39{fill:#82A288;}
	.st40{fill:#BAB49B;}
	.st41{fill:#FFB2AB;}
	.st42{fill:#070D1E;}
	.st43{fill:#D7364A;}
	.st44{fill:#F78D8F;}
	.st45{fill:#FBBEB5;}
	.st46{fill:#D8DCDD;}
	.st47{fill:#C8D3D9;}
	.st48{fill:#FAEBD6;}
	.st49{fill:#EA91A8;}
	.st50{fill:#B6367F;}
	.st51{fill:#522D3F;}
	.st52{fill:#FBAF8D;}
	.st53{fill:#B9607E;}
	.st54{fill:#59436A;}
	.st55{fill:#FFD291;}
	.st56{fill:#050B1F;}
	.st57{fill:#533A71;}
	.st58{fill:#6184DB;}
	.st59{fill:#50C5B7;}
	.st60{fill:#9CEC5B;}
	.st61{fill:#F0F465;}
	.st62{fill:#442300;}
	.st63{fill:#EEEDEF;}
	.st64{fill:#E9ED6D;}
	.st65{fill:#FD7DA0;}
	.st66{fill:#7C5EC2;}
	.st67{fill:#CBC9CF;}
</style>
<title>Slice 1</title>
<desc>Created with Sketch.</desc>
<g id="Page-1" sketch:type="MSPage">
	<g id="back" transform="translate(0.000000, -0.700000)" sketch:type="MSLayerGroup">
		<g id="Livello_1" transform="translate(55.000000, 42.000000)">
			<g id="Clipped" transform="translate(592.000000, 0.000000)">
				<g id="SVGID_250_">
				</g>
				<defs>
					<filter id="Adobe_OpacityMaskFilter" filterUnits="userSpaceOnUse" x="-268.4" y="-103.3" width="694" height="548">
						<feColorMatrix  type="matrix" values="1 0 0 0 0  0 1 0 0 0  0 0 1 0 0  0 0 0 1 0"/>
					</filter>
				</defs>
				<mask maskUnits="userSpaceOnUse" x="-268.4" y="-103.3" width="694" height="548" id="mask-2">
					<g class="st0">
						<rect id="path-1" x="-207.4" y="-103.3" class="st1" width="633" height="548"/>
					</g>
				</mask>
				<g id="Group" sketch:type="MSShapeGroup" class="st2">
					<g>
						<path id="Shape" class="st3" d="M9.1,434.7c-7.3,0,32.5,9.8,32.5,2.5c0-0.7-0.1-1.6-0.2-2.5h83.8c0.3,1.2,0.6,2.6,0.6,4.1
							c0,7.3,27.8-4.1,20.5-4.1c-7.3,0-12.9-5.9-12.9-13.2v-60.8h-111v60.8C22.6,428.8,16.4,434.7,9.1,434.7L9.1,434.7z"/>
						<rect id="Rectangle-path" x="-19.4" y="434.7" class="st4" width="196" height="10"/>
						<path id="Shape_1_" class="st5" d="M-249.1-103.3c-10.9,0-19.3,7.3-19.3,21.9l0,377.1h395.8h298.2l0-377.1
							c0-14.5-10.3-21.9-21.2-21.9H-249.1L-249.1-103.3z"/>
						<path id="Shape_2_" class="st4" d="M405.1,370.7c10.9,0,20.5-7.5,20.5-22v-53h-397h-297v53c0,14.5,9.2,22,20.1,22H405.1
							L405.1,370.7z"/>
					</g>
					<rect id="Rectangle-path_1_" x="-246.4" y="-80.3" class="st1" width="650" height="352"/>
					<g transform="translate(22.000000, 23.000000)">
						<rect id="Rectangle-path_2_" x="-268.4" y="-103.3" class="st3" width="650" height="321"/>
						<g transform="translate(54.000000, 58.000000)">
							<g id="Rectangle-path_3_">
								<rect x="223.6" y="-103.3" class="st6" width="50" height="17"/>
								<rect x="174.6" y="-103.3" class="st7" width="49" height="17"/>
								<rect x="122.6" y="-103.3" class="st8" width="52" height="17"/>
								<rect x="74.6" y="-103.3" class="st9" width="48" height="17"/>
								<rect x="24.6" y="-103.3" class="st10" width="50" height="17"/>
							</g>
							<path id="Shape_3_" class="st11" d="M24.6-92.1v-5.4c0-3.2,2.6-5.8,5.8-5.8h237.4c3.2,0,5.8,2.6,5.8,5.8v5.4
								c0,3.2-2.6,5.8-5.8,5.8H30.3C27.2-86.3,24.6-88.9,24.6-92.1L24.6-92.1z"/>
							<g id="Rectangle-path_4_" transform="translate(0.000000, 97.000000)">
								<rect x="223.6" y="-103.3" class="st12" width="50" height="17"/>
								<rect x="174.6" y="-103.3" class="st13" width="49" height="17"/>
								<rect x="122.6" y="-103.3" class="st14" width="52" height="17"/>
								<rect x="74.6" y="-103.3" class="st15" width="48" height="17"/>
								<rect x="24.6" y="-103.3" class="st16" width="50" height="17"/>
							</g>
							<path id="Shape_4_" class="st11" d="M24.6,4.9v-5.4c0-3.2,2.6-5.8,5.8-5.8h237.4c3.2,0,5.8,2.6,5.8,5.8v5.4
								c0,3.2-2.6,5.8-5.8,5.8H30.3C27.2,10.7,24.6,8.1,24.6,4.9L24.6,4.9z"/>
							<g id="Rectangle-path_5_" transform="translate(0.000000, 145.000000)">
								<rect x="223.6" y="-103.3" class="st17" width="50" height="17"/>
								<rect x="174.6" y="-103.3" class="st18" width="49" height="17"/>
								<rect x="122.6" y="-103.3" class="st19" width="52" height="17"/>
								<rect x="74.6" y="-103.3" class="st20" width="48" height="17"/>
								<rect x="24.6" y="-103.3" class="st21" width="50" height="17"/>
							</g>
							<path id="Shape_5_" class="st11" d="M24.6,52.9v-5.4c0-3.2,2.6-5.8,5.8-5.8h237.4c3.2,0,5.8,2.6,5.8,5.8v5.4
								c0,3.2-2.6,5.8-5.8,5.8H30.3C27.2,58.7,24.6,56.1,24.6,52.9L24.6,52.9z"/>
							<g id="Rectangle-path_6_" transform="translate(0.000000, 193.000000)">
								<rect x="223.6" y="-103.3" class="st22" width="50" height="17"/>
								<rect x="174.6" y="-103.3" class="st23" width="49" height="17"/>
								<rect x="122.6" y="-103.3" class="st24" width="52" height="17"/>
								<rect x="74.6" y="-103.3" class="st25" width="48" height="17"/>
								<rect x="24.6" y="-103.3" class="st26" width="50" height="17"/>
							</g>
							<path id="Shape_6_" class="st11" d="M24.6,100.9v-5.4c0-3.2,2.6-5.8,5.8-5.8h237.4c3.2,0,5.8,2.6,5.8,5.8v5.4
								c0,3.2-2.6,5.8-5.8,5.8H30.3C27.2,106.7,24.6,104.1,24.6,100.9L24.6,100.9z"/>
							<g id="Rectangle-path_7_" transform="translate(299.000000, 193.000000)">
								<rect x="-374.4" y="-103.3" class="st27" width="50" height="17"/>
								<rect x="-422.4" y="-103.3" class="st28" width="48" height="17"/>
								<rect x="-474.4" y="-103.3" class="st29" width="52" height="17"/>
								<rect x="-522.4" y="-103.3" class="st30" width="48" height="17"/>
								<rect x="-573.4" y="-103.3" class="st31" width="51" height="17"/>
							</g>
							<path id="Shape_7_" class="st11" d="M-274.4,100.9v-5.4c0-3.2,2.6-5.8,5.8-5.8h237.4c3.2,0,5.8,2.6,5.8,5.8v5.4
								c0,3.2-2.6,5.8-5.8,5.8h-237.4C-271.8,106.7-274.4,104.1-274.4,100.9L-274.4,100.9z"/>
							<g id="Rectangle-path_8_" transform="translate(299.000000, 145.000000)">
								<rect x="-374.4" y="-103.3" class="st32" width="50" height="17"/>
								<rect x="-422.4" y="-103.3" class="st33" width="48" height="17"/>
								<rect x="-474.4" y="-103.3" class="st34" width="52" height="17"/>
								<rect x="-522.4" y="-103.3" class="st35" width="48" height="17"/>
								<rect x="-573.4" y="-103.3" class="st36" width="51" height="17"/>
							</g>
							<path id="Shape_8_" class="st11" d="M-274.4,52.9v-5.4c0-3.2,2.6-5.8,5.8-5.8h237.4c3.2,0,5.8,2.6,5.8,5.8v5.4
								c0,3.2-2.6,5.8-5.8,5.8h-237.4C-271.8,58.7-274.4,56.1-274.4,52.9L-274.4,52.9z"/>
							<g id="Rectangle-path_9_" transform="translate(299.000000, 97.000000)">
								<rect x="-374.4" y="-103.3" class="st37" width="50" height="18"/>
								<rect x="-422.4" y="-103.3" class="st38" width="48" height="18"/>
								<rect x="-474.4" y="-103.3" class="st39" width="52" height="18"/>
								<rect x="-522.4" y="-103.3" class="st40" width="48" height="18"/>
								<rect x="-573.4" y="-103.3" class="st41" width="51" height="18"/>
							</g>
							<path id="Shape_9_" class="st11" d="M-274.4,4.9v-5.4c0-3.2,2.6-5.8,5.8-5.8h237.4c3.2,0,5.8,2.6,5.8,5.8v5.4
								c0,3.2-2.6,5.8-5.8,5.8h-237.4C-271.8,10.7-274.4,8.1-274.4,4.9L-274.4,4.9z"/>
							<g id="Rectangle-path_10_" transform="translate(299.000000, 48.000000)">
								<rect x="-374.4" y="-103.3" class="st42" width="50" height="17"/>
								<rect x="-422.4" y="-103.3" class="st43" width="48" height="17"/>
								<rect x="-474.4" y="-103.3" class="st44" width="52" height="17"/>
								<rect x="-522.4" y="-103.3" class="st45" width="48" height="17"/>
								<rect x="-573.4" y="-103.3" class="st46" width="51" height="17"/>
							</g>
							<path id="Shape_10_" class="st11" d="M-274.4-44.1v-5.4c0-3.2,2.6-5.8,5.8-5.8h237.4c3.2,0,5.8,2.6,5.8,5.8v5.4
								c0,3.2-2.6,5.8-5.8,5.8h-237.4C-271.8-38.3-274.4-40.9-274.4-44.1L-274.4-44.1z"/>
							<g id="Rectangle-path_11_" transform="translate(299.000000, 0.000000)">
								<rect x="-374.4" y="-103.3" class="st47" width="50" height="17"/>
								<rect x="-422.4" y="-103.3" class="st48" width="48" height="17"/>
								<rect x="-474.4" y="-103.3" class="st49" width="52" height="17"/>
								<rect x="-522.4" y="-103.3" class="st50" width="48" height="17"/>
								<rect x="-573.4" y="-103.3" class="st51" width="51" height="17"/>
							</g>
							<path id="Shape_11_" class="st11" d="M-274.4-92.1v-5.4c0-3.2,2.6-5.8,5.8-5.8h237.4c3.2,0,5.8,2.6,5.8,5.8v5.4
								c0,3.2-2.6,5.8-5.8,5.8h-237.4C-271.8-86.3-274.4-88.9-274.4-92.1L-274.4-92.1z"/>
							<g id="Rectangle-path_12_" transform="translate(0.000000, 48.000000)">
								<rect x="223.6" y="-103.3" class="st52" width="50" height="17"/>
								<rect x="174.6" y="-103.3" class="st53" width="49" height="17"/>
								<rect x="122.6" y="-103.3" class="st54" width="52" height="17"/>
								<rect x="74.6" y="-103.3" class="st55" width="48" height="17"/>
								<rect x="24.6" y="-103.3" class="st56" width="50" height="17"/>
							</g>
							<path id="Shape_12_" class="st11" d="M24.6-44.1v-5.4c0-3.2,2.6-5.8,5.8-5.8h237.4c3.2,0,5.8,2.6,5.8,5.8v5.4
								c0,3.2-2.6,5.8-5.8,5.8H30.3C27.2-38.3,24.6-40.9,24.6-44.1L24.6-44.1z"/>
						</g>
					</g>
				</g>
			</g>
			<g id="Group_1_" transform="translate(373.000000, 287.000000)" sketch:type="MSShapeGroup">
				<path id="Shape_13_" class="st4" d="M646.1,140.7H429.6V151c0,0,0.3,6.7,9.3,6.7h207.2h207.2c9,0,10.3-6.7,10.3-6.7v-10.3H646.1
					L646.1,140.7z"/>
				<path id="Shape_14_" class="st3" d="M646,140.7h-26.9c0,0,0.7,6,6,6H646h21c5.3,0,6-6,6-6H646L646,140.7z"/>
				<path id="Shape_15_" class="st5" d="M475.1-103.3c-6.7,0-12.6,3-12.6,12v232h183.5h185.5v-232c0-9-7.8-12-14.6-12H475.1
					L475.1-103.3z"/>
				<g id="Rectangle-path_13_" transform="translate(43.000000, 10.000000)">
					<rect x="430.6" y="-103.3" class="st1" width="347" height="223"/>
					<rect x="707.6" y="-103.3" class="st57" width="70" height="203"/>
					<rect x="638.6" y="-103.3" class="st58" width="69" height="203"/>
					<rect x="569.6" y="-103.3" class="st59" width="69" height="203"/>
					<rect x="500.6" y="-103.3" class="st60" width="69" height="203"/>
					<rect x="430.6" y="-103.3" class="st61" width="70" height="203"/>
				</g>
			</g>
			<g id="Group_2_" transform="translate(268.000000, 410.000000)" sketch:type="MSShapeGroup">
				<path id="Shape_16_" class="st5" d="M999.6,26V-94.6c0-4.8,3.9-8.7,8.7-8.7h55.6c4.8,0,8.7,3.9,8.7,8.7V26
					c0,4.8-3.9,8.7-8.7,8.7h-55.6C1003.4,34.7,999.6,30.8,999.6,26L999.6,26z"/>
				<rect id="Rectangle-path_14_" x="1003.6" y="-92.3" class="st12" width="65" height="21"/>
				<rect id="Rectangle-path_15_" x="1003.6" y="-71.3" class="st13" width="65" height="20"/>
				<rect id="Rectangle-path_16_" x="1003.6" y="-31.3" class="st15" width="65" height="20"/>
				<rect id="Rectangle-path_17_" x="1003.6" y="-51.3" class="st14" width="65" height="20"/>
				<rect id="Rectangle-path_18_" x="1003.6" y="-11.3" class="st62" width="65" height="21"/>
				<rect id="Rectangle-path_19_" x="1003.6" y="9.7" class="st1" width="65" height="12"/>
			</g>
			<g id="Group_3_" transform="translate(38.000000, 482.000000)" sketch:type="MSShapeGroup">
				<rect id="Rectangle-path_20_" x="1509.6" y="-103.3" class="st4" width="11" height="7"/>
				<path id="Shape_17_" class="st4" d="M1533.6-80.3h-111v35.6c0,4,2.9,7.4,6.9,7.4h97c4,0,7.1-3.4,7.1-7.4V-80.3L1533.6-80.3z"/>
				<path id="Shape_18_" class="st57" d="M1422.6-91v10.7h111V-91c0-4-3.2-7.3-7.1-7.3h-97C1425.5-98.3,1422.6-94.9,1422.6-91
					L1422.6-91z"/>
				<circle id="Oval" class="st1" cx="1478.8" cy="-63.2" r="21.1"/>
				<circle id="Oval_1_" class="st5" cx="1478.8" cy="-63.2" r="18.7"/>
				<rect id="Rectangle-path_21_" x="1432.6" y="-93.3" class="st1" width="18" height="9"/>
			</g>
			<g id="Group_4_" transform="translate(1068.000000, 416.000000)" sketch:type="MSShapeGroup">
				<path id="Shape_19_" class="st59" d="M-608.6-72.9c0,31.5,18.2,41.6,26.2,44.8v27.5c0,7.7,7.1,14,14.5,14
					c7.4,0,14.5-6.3,14.5-14v-52c6-1,12.8-4,17.2-8.9c8.9-9.9,6.9-23.7,6.8-24.3c-0.4-3.6-3.6-6.2-7.2-5.8c-3.6,0.4-6.1,3.6-5.7,7.2
					c0,0.2,1.1,8.8-3.8,14.2c-1.9,2.1-4.3,3.5-7.3,4.3v-24c0-7.7-7.1-14-14.5-14c-7.4,0-14.5,6.3-14.5,14v47.7
					c-6-3.4-13.1-11.4-13.1-30.8c0-3.6-2.7-6.6-6.3-6.6C-605.5-79.5-608.6-76.6-608.6-72.9L-608.6-72.9z"/>
				<path id="Shape_20_" class="st4" d="M-526.4-1.3h-85v23.8c0,3.3,2.2,6.2,5.6,6.2h72.7c3.3,0,6.8-2.9,6.8-6.2V-1.3L-526.4-1.3z"
					/>
			</g>
		</g>
		<g id="Livello_2">
		</g>
	</g>
	<g id="Group_6_" transform="translate(242.000000, 476.000000)" sketch:type="MSLayerGroup">
		<g sketch:type="MSShapeGroup">
			<g transform="translate(18.954182, 0.897579)">
				<rect id="Rectangle-1-Copy-8" x="1185.2" y="-98" class="st63" width="12.5" height="28"/>
				<rect id="Rectangle-1-Copy-7" x="1185.2" y="-69.3" class="st63" width="12.5" height="30.2"/>
				<path id="Rectangle-1-Copy-6" class="st64" d="M1197.7-98v-2.9c0-1.6-1.3-2.9-2.9-2.9h-6.7c-1.6,0-2.9,1.3-2.9,2.9v2.9H1197.7
					L1197.7-98z"/>
			</g>
			<g transform="translate(34.030363, 0.897579)">
				<rect id="Rectangle-1-Copy-11" x="1155" y="-98" class="st63" width="12.5" height="28"/>
				<rect id="Rectangle-1-Copy-10" x="1155" y="-69.3" class="st63" width="12.5" height="30.2"/>
				<path id="Rectangle-1-Copy-9" class="st65" d="M1167.5-98v-2.9c0-1.6-1.3-2.9-2.9-2.9h-6.7c-1.6,0-2.9,1.3-2.9,2.9v2.9H1167.5
					L1167.5-98z"/>
			</g>
			<g id="Group-_x2B_-Oval-2-_x2B_-Path-6" transform="translate(4.000000, 1.845703)">
				<g id="Group_5_" transform="translate(0.316538, 33.270295)">
					<rect id="Rectangle-1-Copy-2" x="1214.5" y="-103.5" class="st63" width="12.5" height="30.2"/>
				</g>
				<ellipse id="Oval-2" class="st66" cx="1221" cy="-90.6" rx="2" ry="13.2"/>
				<path id="Path-6" class="st67" d="M1220.9-93.9h-2.8c0,0,0,11.3-1.6,16.2s-1.7,7.6-1.7,7.6l5.3,0l0.9,0l0.9,0l5.3,0
					c0,0-0.1-2.7-1.7-7.6s-1.6-16.2-1.6-16.2H1220.9L1220.9-93.9z"/>
			</g>
			<path id="Rectangle-76" class="st4" d="M1235.6-42.8v47c0,3.3-2.7,6-6,6h-39c-3.3,0-6-2.7-6-6v-47c0-3.3,2.7-6,6-6h39
				C1232.9-48.8,1235.6-46.1,1235.6-42.8z"/>
			<rect id="Rectangle-76-Copy" x="1184.6" y="-48.8" class="st4" width="51" height="30"/>
		</g>
	</g>
</g>
</svg>
